<svg xmlns="http://www.w3.org/2000/svg" viewBox="0 0 674.26 972.68"><defs><style>.cls-1{fill:#5fb0be;}.cls-2{fill:#fff;}.cls-3{fill:#042a2b;}.cls-4{fill:none;stroke:#042a2b;stroke-miterlimit:10;stroke-width:2px;}.cls-5{fill:#277a73;}.cls-6{fill:#e5f4fa;}</style></defs><title>Asset 22Clipboard</title><g id="Layer_2" data-name="Layer 2"><g id="Layer_1-2" data-name="Layer 1"><rect class="cls-1" y="105.28" width="674.26" height="867.4" rx="49.94"/><rect class="cls-2" x="42.19" y="135.22" width="589.89" height="780.59" rx="15.28"/><path class="cls-3" d="M515.85,59H396.15a59,59,0,1,0-118,0H158.41A10.41,10.41,0,0,0,148,69.4v89.33a10.41,10.41,0,0,0,10.37,10.37H515.85a10.4,10.4,0,0,0,10.37-10.37V69.4A10.4,10.4,0,0,0,515.85,59ZM337.13,35.92A23.1,23.1,0,1,1,314,59,23.1,23.1,0,0,1,337.13,35.92Z"/><rect class="cls-3" x="180.25" y="352.3" width="20" height="80.02"/><rect class="cls-1" x="207.6" y="313.4" width="20" height="118.92"/><rect class="cls-3" x="237.6" y="372.86" width="20" height="59.46"/><rect class="cls-1" x="267.61" y="337.95" width="20" height="94.37"/><rect class="cls-3" x="297.62" y="322.95" width="20" height="109.38"/><line class="cls-4" x1="156.8" y1="432.32" x2="156.8" y2="262.98"/><line class="cls-4" x1="148.04" y1="403.84" x2="165.55" y2="403.84"/><line class="cls-4" x1="148.04" y1="431.94" x2="165.55" y2="431.94"/><line class="cls-4" x1="148.04" y1="375.75" x2="165.55" y2="375.75"/><line class="cls-4" x1="148.04" y1="347.65" x2="165.55" y2="347.65"/><line class="cls-4" x1="148.04" y1="319.56" x2="165.55" y2="319.56"/><line class="cls-4" x1="148.04" y1="291.46" x2="165.55" y2="291.46"/><line class="cls-4" x1="148.04" y1="263.37" x2="165.55" y2="263.37"/><path class="cls-1" d="M519.58,402.7a71.45,71.45,0,1,1-64.82-101.52v71.45Z"/><path class="cls-5" d="M483.92,307.4l-29.16,65.23V301.18A71.31,71.31,0,0,1,483.92,307.4Z"/><path class="cls-6" d="M454.77,372.63h71.45a71.45,71.45,0,0,0-42.3-65.23l-29.15,65.23Z"/><path class="cls-3" d="M526.22,372.63a71.11,71.11,0,0,1-6.64,30.07l-64.82-30.07Z"/></g></g></svg>