<svg xmlns="http://www.w3.org/2000/svg" viewBox="0 0 1075.47 196.68"><defs><style>.cls-1{fill:#d94728;}</style></defs><title>Asset 5Healthcare</title><g id="Layer_2" data-name="Layer 2"><g id="Layer_1-2" data-name="Layer 1"><path class="cls-1" d="M87.09,124.42,41.93,132,52,191.79l-29,4.89L0,60.2l29-4.89,9.08,53.85,45.16-7.62L74.15,47.7l29-4.89,23,136.48-29,4.89Z"/><path class="cls-1" d="M246,120.17l-65.76,7.58c4.32,20,14.55,24.9,28.06,23.34,8.94-1,16.17-4.68,24.58-12.1l13.55,14.55a62.51,62.51,0,0,1-38.28,18.91c-33.78,3.89-54-16.32-57.84-49.3-3.66-31.79,10.58-58.4,41.38-61.95,29.8-3.44,49.78,14.39,53.65,48C245.76,112.75,245.87,117.16,246,120.17Zm-29.59-15.72c-1.84-15.89-8.39-25.6-21.9-24-11.13,1.29-17,9.42-16.31,29.67l38.35-4.42Z"/><path class="cls-1" d="M366.39,139.42l-4.62,19.19c-12.06-.33-20.31-3.54-25.46-13.59-6.75,11.92-18,17.15-30.57,18.07-21.14,1.54-35.3-11.07-36.69-30.22-1.69-23.14,14.95-37,46.07-39.25l12.17-.88-.38-5.19c-1-13.17-6.85-17-20-16-7,.51-17.21,3.26-27.52,7.62l-8-18.47A110.09,110.09,0,0,1,310,50.08C339.27,48,353,60,354.72,83.92l3.11,42.69C358.46,135.19,361.27,138,366.39,139.42ZM329.93,129l-1.46-20.15-9.18.67c-15.56,1.14-22.73,7.27-21.89,18.84.68,9.38,5.86,14.42,14.84,13.76C320.22,141.58,326.3,136.93,329.93,129Z"/><path class="cls-1" d="M393.23,128.76,388.15,6.26l28.24-4.37,5.19,124.89c.19,4.6,1.89,6.93,6.08,6.75a12.14,12.14,0,0,0,5.55-1.43L439.84,152a46.61,46.61,0,0,1-18,4.36C404.62,157.11,394,147.14,393.23,128.76Z"/><path class="cls-1" d="M527.9,145.75c-7.71,5.53-18.06,8.5-27.46,8.65-22,.16-33.41-12.26-33.79-35.85l-.86-52.79L450,66l-.33-20,15.8-.26-.38-23.2,28.34-3.86.43,26.6,24.4-.4-2.47,20-21.6.35.85,52.19c.17,10.4,3.64,14.35,10.84,14.23,3.8-.06,7.58-1.32,11.94-3.8Z"/><path class="cls-1" d="M639.37,75,638,152.22l-28.4-.49,1.25-72.39c.21-12.2-4.53-15.68-11.53-15.8-8-.14-14.49,5.15-20.65,14.25l-1.26,73.38-28.4-.49L551.61,2.51,580.05,0l-1,57.39c8.38-9.86,18.47-15.08,31.06-14.87C628.72,42.84,639.71,55,639.37,75Z"/><path class="cls-1" d="M757.7,61.79,744.4,77.88c-6.5-5.56-12.56-8.3-20.35-8.73-14.18-.78-23.12,8.95-24.47,33.51s7.18,33.24,20.56,34c7.79.42,13.31-1.68,21.38-6.24l11.4,18.45a53.16,53.16,0,0,1-35.43,10.47c-31.55-1.73-49.73-24.36-47.88-58.11,1.85-33.55,22.7-55.83,53.65-54.13C737.44,47.86,748.19,52.65,757.7,61.79Z"/><path class="cls-1" d="M865.58,152.16l-7.72,18.16C846,168,838.41,163.48,835,152.72c-8.63,10.64-20.59,13.94-33.14,12.77-21.1-2-33-16.74-31.19-35.86,2.16-23.1,20.85-34,51.92-31.1l12.14,1.14.49-5.18c1.23-13.14-4-17.85-17.1-19.07-7-.66-17.51.37-28.4,3l-4.8-19.53a110,110,0,0,1,39.75-4.11c29.27,2.73,40.81,16.87,38.57,40.76l-4,42.62C858.46,146.68,860.77,149.91,865.58,152.16Zm-34.23-16.25,1.88-20.11-9.16-.86c-15.54-1.45-23.62,3.42-24.7,15-.88,9.35,3.4,15.18,12.36,16C819.69,146.67,826.46,143.08,831.35,135.91Z"/><path class="cls-1" d="M971.88,73.86l-8.15,26.56a38.35,38.35,0,0,0-9.34-2.65c-12.89-1.71-20.32,7.19-26.17,24l-7.12,53.73L893,171.74,906.86,66.66l24.59,3.26-.33,20.73c6.9-14,18.37-21.37,30.46-19.77A36.68,36.68,0,0,1,971.88,73.86Z"/><path class="cls-1" d="M1071.7,154.67l-65.21-11.38c-1.54,20.44,6.89,28,20.29,30.34,8.86,1.54,16.83.09,27-4.63l8.88,17.79a62.57,62.57,0,0,1-42.08,7.28c-33.49-5.85-47.17-31-41.47-63.68,5.5-31.52,26.7-53,57.24-47.67,29.55,5.15,43.65,27.92,37.85,61.21C1073.57,147.48,1072.42,151.74,1071.7,154.67Zm-23.92-23.46c2.75-15.77-.78-26.94-14.18-29.28-11-1.92-19,4.2-24,23.83l38,6.63Z"/></g></g></svg>