<svg xmlns="http://www.w3.org/2000/svg" viewBox="0 0 821.1 509.5"><defs><style>.cls-1{fill:#277a73;}.cls-2{fill:#d94728;}.cls-3{fill:#042a2b;}.cls-4{fill:#5fb0be;}.cls-5{fill:#7cc9d1;}</style></defs><title>Asset 21Hostpital</title><g id="Layer_2" data-name="Layer 2"><g id="Layer_1-2" data-name="Layer 1"><path class="cls-1" d="M806,99.3H530.6V8.15A8.18,8.18,0,0,0,522.45,0H298.65a8.17,8.17,0,0,0-8.15,8.15V99.3H15.08A15.13,15.13,0,0,0,0,114.38v380A15.13,15.13,0,0,0,15.08,509.5H806a15.13,15.13,0,0,0,15.08-15.08v-380A15.13,15.13,0,0,0,806,99.3Z"/><rect class="cls-2" x="402.24" y="31.81" width="16.62" height="55.91" rx="2"/><rect class="cls-2" x="402.24" y="31.81" width="16.62" height="55.91" rx="2" transform="translate(470.32 -350.78) rotate(90)"/><rect class="cls-3" x="343.98" y="376.37" width="133.13" height="133.13"/><rect class="cls-4" x="354.54" y="386.55" width="112.03" height="122.95"/><rect class="cls-3" x="676.85" y="265.86" width="74.31" height="74.31"/><rect class="cls-4" x="682.74" y="271.54" width="62.53" height="62.53"/><rect class="cls-5" x="714" y="271.54" width="31.26" height="62.53"/><rect class="cls-3" x="525.12" y="265.86" width="74.31" height="74.31"/><rect class="cls-4" x="531.01" y="271.54" width="62.53" height="62.53"/><rect class="cls-5" x="562.28" y="271.54" width="31.26" height="62.53"/><rect class="cls-3" x="373.4" y="265.86" width="74.31" height="74.31"/><rect class="cls-4" x="379.29" y="271.54" width="62.53" height="62.53"/><rect class="cls-5" x="410.55" y="271.54" width="31.26" height="62.53"/><rect class="cls-3" x="221.67" y="265.86" width="74.31" height="74.31"/><rect class="cls-4" x="227.56" y="271.54" width="62.53" height="62.53"/><rect class="cls-5" x="258.82" y="271.54" width="31.26" height="62.53"/><rect class="cls-3" x="69.94" y="265.86" width="74.31" height="74.31"/><rect class="cls-4" x="75.83" y="271.54" width="62.53" height="62.53"/><rect class="cls-5" x="107.1" y="271.54" width="31.26" height="62.53"/><rect class="cls-3" x="676.85" y="376.37" width="74.31" height="74.31"/><rect class="cls-4" x="682.74" y="382.05" width="62.53" height="62.53"/><rect class="cls-5" x="714" y="382.05" width="31.26" height="62.53"/><rect class="cls-3" x="525.12" y="376.37" width="74.31" height="74.31"/><rect class="cls-4" x="531.01" y="382.05" width="62.53" height="62.53"/><rect class="cls-5" x="562.28" y="382.05" width="31.26" height="62.53"/><rect class="cls-3" x="221.67" y="376.37" width="74.31" height="74.31"/><rect class="cls-4" x="227.56" y="382.05" width="62.53" height="62.53"/><rect class="cls-5" x="258.82" y="382.05" width="31.26" height="62.53"/><rect class="cls-3" x="69.94" y="376.37" width="74.31" height="74.31"/><rect class="cls-4" x="75.83" y="382.05" width="62.53" height="62.53"/><rect class="cls-5" x="107.1" y="382.05" width="31.26" height="62.53"/><rect class="cls-3" x="676.85" y="155.36" width="74.31" height="74.31"/><rect class="cls-4" x="682.74" y="161.04" width="62.53" height="62.53"/><rect class="cls-5" x="714" y="161.04" width="31.26" height="62.53"/><rect class="cls-3" x="525.12" y="155.36" width="74.31" height="74.31"/><rect class="cls-4" x="531.01" y="161.04" width="62.53" height="62.53"/><rect class="cls-5" x="562.28" y="161.04" width="31.26" height="62.53"/><rect class="cls-3" x="373.4" y="155.36" width="74.31" height="74.31"/><rect class="cls-4" x="379.29" y="161.04" width="62.53" height="62.53"/><rect class="cls-5" x="410.55" y="161.04" width="31.26" height="62.53"/><rect class="cls-3" x="221.67" y="155.36" width="74.31" height="74.31"/><rect class="cls-4" x="227.56" y="161.04" width="62.53" height="62.53"/><rect class="cls-5" x="258.82" y="161.04" width="31.26" height="62.53"/><rect class="cls-3" x="69.94" y="155.36" width="74.31" height="74.31"/><rect class="cls-4" x="75.83" y="161.04" width="62.53" height="62.53"/><rect class="cls-5" x="107.1" y="161.04" width="31.26" height="62.53"/><rect class="cls-3" x="406.82" y="385.54" width="7.45" height="123.96"/><rect class="cls-3" x="420.89" y="439.1" width="10.48" height="16.84"/><rect class="cls-3" x="389.74" y="439.1" width="10.48" height="16.84"/></g></g></svg>