<svg xmlns="http://www.w3.org/2000/svg" viewBox="0 0 190.98 312.92"><defs><style>.cls-1{fill:#5fb0be;fill-rule:evenodd;}</style></defs><title>Asset 9UK</title><g id="Layer_2" data-name="Layer 2"><g id="Layer_1-2" data-name="Layer 1"><path class="cls-1" d="M125.81,13a22.09,22.09,0,0,0,2.76-.14c.9.07,1.72.64,2.49.53,1-.15,1.93-1.43,2.5-2s1.9-1.52,1.83-2.62c-.14-2.44-3.78-1.39-3.94-4.2-.08-1.66,1.81-2.15,1.45-3.8-.21-.94-1.25-.86-2-.79A12.28,12.28,0,0,0,127,.83c-1.92,1-1.52,3.59-2.24,5.9-.28.94-1,1.65-1.05,2.49C123.56,11,124.77,12.76,125.81,13ZM53,33.62C54.18,33,55.66,31.5,57.07,31c.59-.21,2-.26,3-.65a6.38,6.38,0,0,0,3-2.76c.54-1.06.4-2.18.92-3.54a17.79,17.79,0,0,1,2.1-3.67c.79-1.09,2.06-1.86,2.75-3.15.84-1.57,1.54-4.85-.65-4.86s-3.94,1.81-5.64,2.5c-1.11.44-2.44.58-3.55,1.05s-2.28,1.43-3.41,1.83c-2.33.83-4,.73-4.72,2.89a20,20,0,0,0-.52,5.25c.12,1,1.76,2,1.7,3.14-.06,1.59-3.5,2.2-3.4,4.07C48.8,35.61,52.41,34,53,33.62Zm132.62,203.2c-2.91-3-4.69-5.9-10.36-6.16-1.27-.06-2.77.12-4.2,0a10.33,10.33,0,0,0-4.06.13c-1.81.65-2.2,3.69-4.2,3.94s-5.22-2.81-5.25-4.73c0-2.82,4.71-4,6-6.3a6,6,0,0,0,.66-3.67c-.24-1.48-1.71-2.7-2.1-4.33-.28-1.16-.05-2.47-.39-3.67-.42-1.46-1.64-1.94-2.49-3a11.68,11.68,0,0,1-2.5-4.46c1.26-.35,3.47.23,4.07-.79-.54-4.62-4.16-7.36-4.07-12.59,0-1.18.64-2.25.53-3.54a22.87,22.87,0,0,0-1.19-3.68,33.52,33.52,0,0,0-1.57-3.28c-1-2.39-1.51-4.95-2.76-6.82a16.34,16.34,0,0,0-4.19-4.06c-2.13-1.47-5.12-2.28-6.69-4.6a14.45,14.45,0,0,1-2.36-6.43c-.29-2.42-.15-5-.79-7.86a37.51,37.51,0,0,1-1.18-3.94c-.15-1.33-.1-2.66-.27-4.07-.45-3.87,1-8.31-.26-11.54-1.19-3-3.71-4.86-5-7.21-1-1.86-1.39-5-3-6.43a26.84,26.84,0,0,0-2.89-1.71c-2.6-1.7-5.48-5.33-7.87-5.38-2.6-.06-2.65,2.36-5.9,2.1-1.82-.15-4.82-1.47-4.85-2.49s1.88-1.4,2.75-2c1.34-.87,2.7-2.73,4.46-3.15,2.48-.59,6.85,1.13,7.08-2,.17-2.18-3.69-2.82-2.23-6.43.5-1.23,4.76-2.72,5.91-3.8,1.37-1.3,2.08-3.88,3.14-5.25,1.47-1.88,4-2.85,5.25-5,.54-.91,1-2.31,1.71-3.55a34,34,0,0,0,2.23-3.41c.47-1.12.59-2.4,1-3.54a14.86,14.86,0,0,1,3-4.46c1.94-2,4.43-3.68,3-7.48-.62-1.68-2.82-4.48-4.33-4.85-2.28-.57-5-.34-7.34-.92-2.2-.53-4.32-1.74-6.3-2-1.41-.16-2.68.43-4.2.13-1.72-.34-3-2.22-5.12-2.49a9.25,9.25,0,0,0-3.54.66c-1.06.26-2.28.35-3.41.65-1.39.37-5.69,1.88-6.16-.26-.57-2.54,3.82-3.35,3.8-5.64,0-1.44-1.93-1.35-2.1-2.76-.34-2.85,4.42-5.35,6.56-6.55,1.41-.8,2.89-1.45,4.2-2.36s2.41-2.2,3.54-2.89c2.6-1.59,6.07-2.14,6.83-5.12a25.21,25.21,0,0,0,0-2.75c.17-1.54,1.48-2.2,1.17-3.67-.21-1-2.1-1.82-3.67-1.84-1.14,0-2.15.63-3.14.66s-1.94-.38-2.89-.39c-1.52,0-3,.65-4.2.65s-2.42-.67-3.67-.78c-1.53-.14-3,.27-4.33.13-1.57-.16-3-1.2-4.59-1.58-.79-.19-1.59-.07-2.23-.26-2.1-.61-2.39-3-5.12-2.89-2.22.08-3.14,2.55-4.07,4.72-.38.89-1.41,2.05-1.7,2.89-.38,1.1-.12,2.2-.79,2.89-1,1-2.83.41-3.41,1.31s.36,2.51-.26,3.93c-.72,1.63-2.59.83-2.76,2.36-.21,1.92,1.85,1.6,2,3.81a7.09,7.09,0,0,1-3.81,1.18c-1,0-1.82-.65-2.75-.65a4.79,4.79,0,0,0-3.81,1.7c-1.36,2.1-.38,4.75-1.18,7.61-.49,1.76-2,1.75-2.49,3.15a5.5,5.5,0,0,0,0,3.67c.31,1.14,1.59,1.69,1.57,2.75,0,1.22-1.93,2.27-3.28,2C65,56,65.37,53.28,64.67,50.8c-.25-.91-1.21-2-1.31-2.89-.14-1.26.49-2.93.26-4.46s-1.21-3-2.49-3c-2.41.06-1.27,3.14-2.88,3.81-.76.31-1.45-.35-2.5-.27a8.72,8.72,0,0,0-2.36,1.19c-.86.46-1.55.73-1.71,1.7-.48,2.93,2.66,3.19,3.68,5.12,1.13,2.14.92,5.11,3,6.29,1.31.74,3.19.45,4.33,1.32.6.71-.12,2.75.66,3.27,2,.5,2.75-1.14,4.46-1.31-.7,3.66-4.61,4.57-3.68,9.45-.67,2.56-5,1.48-7.21,2.49-.64.82.19,1.92-.13,2.76-1.35.87-3.31.86-3.81,2.36-.6,1.84,1.46,3.34,1.18,5.64a3,3,0,0,1-1.31,2c-.37.33-1.59.94-1.44,1.83s1.85,1,2.1,1a14.62,14.62,0,0,0,3-.13c1.68-.16,4.63,0,5.77-.52,1.77-.87,1.52-3.75,3-4.07a2.05,2.05,0,0,1,2.1.92c.4,1.32-2,3.58-2.76,4.59-1,1.23-2.72,3-2.76,4.59,0,1.33,1.09,1.9,1.06,3-.07,2-2.53,3.11-3,5.24-.57,2.46.18,5.13-.13,7.48-.19,1.41-1.66,2.59-2.36,4.07-.88,1.85-1.32,3.93-2,5.25-.75,1.49-2.49,3.14-2.1,4.59s3.16,1.79,4.46.39c.81-.87.72-2.33,1.18-3.55a10.2,10.2,0,0,1,3.54-4.85c1.09,2.42.42,7.17,3.94,6.56,2-.35,2-2.45,1.7-4.72s-.28-4.38-2.23-4.59c-1.56-.17-1.92,1.11-3.14,1,0-1.85.94-2.21,1.83-3.28.68-.81,1.25-2.49,2.36-2.62,2-.24,2.45,2.34,3.15,3.41.59.9,2,1.8,3,3,.55.67.93,1.7,1.57,2.5,1.13,1.41,2.74,3,2,5.77-.4,1.42-2,1.9-3.15,3.14-1.36,1.44-2.12,3.7-3.15,5.12-.74,1-2.06,1.8-3,2.89-.8.91-1.26,2.14-2,2.88-1.08,1.12-2.62,1.54-3,2.76-.67,2.08.9,6.35,2.5,6.69.88.19,1.71-1.45,3.14-1.44,1.93,0,3.15,1.91,3.94,3s1.7,3.51,3.67,3.28,1.1-3.1,2.37-4.33c3.12.8,3.54,4.49,8.13,3.28a29.46,29.46,0,0,0,3-1.18c1.09-.44,2.33-.59,3.14-.92,1.31-.53,2-2,3.28-2.23,1.66-.29,3.26.5,3.41,1.31.27,1.44-1.61,2.45-2.36,3.54-.56.82-.82,1.89-1.44,2.76s-1.26,1.44-1.84,2.36c-.89,1.41-3.06,4.09-2.89,5.64s1,2.67,1.71,4.59c.57,1.65.7,3.55,1.18,5.12.43,1.38,1.3,2.31,1.57,3.28.37,1.3.07,3.16,1.18,3.41,1.49.33,1.92-1.81,3.81-2.1,1.53-.24,3.26.24,3.54,1.44s-.5,1.75-1.18,2.89c-.5.82-.65,2-1.18,2.75-.82,1.09-2.36,1.39-3,2.36a6.76,6.76,0,0,0-.93,3.28c0,1.14.86,2.11.79,3.28-.11,2-2.39,2.81-2.88,4.72-.29,1.11,0,2.41-.26,3.41-.35,1.37-1.71,1.57-2.36,2.76-.59,1-.1,1.76-.79,2.62-1.61.06-2.19-1.7-3.68-2-1.15-.21-2.6.49-4.2.52-1.89.05-3.76-1.26-5.24-1.31s-3.17,1.3-4.59,1.05c-1-.17-1-.9-1.84-1.83-.62-.71-1.6-1.23-2-1.71-1.26-1.65-1.33-4.16-4.85-3.67-1.5.21-4,2.2-4.07,3.54s1.36,2.58,2.23,4.07,2.19,2.61,2,4.46c-.36,3-4.43,3.56-6.56,4.72-1.82,1-3.58,3.85.52,3.54,2-.15,6.39-3.57,8.53-1.05.66.79.4,2.25.52,3.94a25.39,25.39,0,0,1,.39,2.62c-.1,1.66-1.26,2.38-1.44,3.81-.14,1.14.23,2.32.13,3.41a11.18,11.18,0,0,1-5.9,8.65,25.77,25.77,0,0,1-5.9,2.1c-1.28.29-2.72.22-4.07.66-1.61.52-3,1.84-4.59,2.1-1,.17-2.37-.23-3.28-.13S38.62,245,38.43,246c-.3,1.58,1.52,1.79,1.58,3.28s-1.54,2.17-1.58,3.28,1.09,2,1.71,2.75,1.18,1.9,2.23,2.1a10.32,10.32,0,0,0,4.59-.65c1.3-.42,2.08-1.46,3.28-1.7A6.22,6.22,0,0,1,56,257c.31.3,1.53,1.12,1.7,2s-1.06,1.47-.79,2.75c.57,2.65,6.25.25,7.75.4,2.1.2,2.54,3.12,3.28,4.45a15.45,15.45,0,0,0,4.19,4.59,9.37,9.37,0,0,0,5.9,1c2-.52,2.68-2.49,4.59-3.27.8-.33,7.2-1.34,7.61,0s-2.66,2.64-3.54,3.27A19,19,0,0,0,83,275.36c-.75,1-.67,2.89-2.22,3.68-1.33.66-5.35.63-7,.13-1.08-.34-2.23-1.26-3.67-1.84a29.17,29.17,0,0,0-9.06-2c-1.81-.11-3.94-.39-5.25.4-2.16,1.32-1.26,4.84-4.06,5.51-1.45.35-2.69-.37-3.68-.13-2.48.59-2.19,4.11-3.28,6.16a12.16,12.16,0,0,1-3.14,3.15A19.87,19.87,0,0,1,38,293.07c-1.48.64-3.13.82-4.33,1.84-.88.75-1.32,1.9-2.1,2.75s-1.65,1.41-2.49,2.24c-1.66,1.62-4.17,3.68-7,4.06-1.11.15-3.21-.07-4.07.13-1.66.4-4.77,3.25-2.36,4.33,1.85.83,2.4-.95,4.06-.92a4.64,4.64,0,0,1,3.42,2.1c.58.89.55,3,2.1,3.28,2.43.41,3-2.76,4.06-3.94,1.3-1.39,3.76-1.85,5.78-2.88,1.17-.6,2-2.3,3.54-2.5a26,26,0,0,1,3,.4c1.51.11,3.23-.22,4.2-.13,2.5.23,5,2,6.82,3.15.75.46,1.66.6,2.37,1,1.67,1,1.81,3,4.46,2.75,1.19-.09,4.76-2.77,5.24-3.68s.38-2.16.79-3.27c1.13-3.08,2.34-3.83,5.38-5.12a19.91,19.91,0,0,1,2.23-1A18.41,18.41,0,0,1,77,297.4c2-.07,3.4-.4,4.85,0a10.28,10.28,0,0,1,3.93,2.36c1.06.91,2,2.38,3.42,2.75.85.24,2.09,0,3.14.14,2.59.39,4.94,2.45,7.09,2.23,1.73-.18,2.23-2.42,3.8-3a10.32,10.32,0,0,1,5.12,0c2.76,1,4.35,5.65,8.13,5.64,1.43,0,3.33-1,3.41-2.62.11-2.14-2.37-1.66-2.36-3.94,1-.24,2,.4,3,.66s2.19.31,3.27.65,2.15,1.44,3.28,1.57,2.53-.53,3.81-.65a41.66,41.66,0,0,1,8.13,0c1.2.15,2.2.92,3.41,1.31.71.23,1.73.38,2.62.66,2.06.63,3.5,1.95,5.25,1.83,1.21-.08,2.58-1.39,3.94-1.83,1.18-.39,3-.34,4.72-.79s2.77-1.6,3.93-1.71c1-.09,2,.49,3,.26,1.6-.35,2.09-2.94,3.55-3.8,2.1-1.25,5.76-.92,7.34-2.49,1.73-1.74,1.15-5.57,1.7-7.74-1.82-2.23-5.88-.45-8.52-1.19-1.4-.39-2.14-1.68-3.15-2.36s-4.12-1.89-3.94-3.28,3.11-1,4.21-1.44a4.62,4.62,0,0,0,2.36-2.49c.6-1.54,0-4.07,1.31-4.86,1-.59,2.8,0,3.93-.26,2.27-.55,2.54-2.43,3.94-4.19,2.07-2.6,5.4-3.84,6.95-6.17,1.06-1.58,1.1-3.59,1.84-5.38.49-1.19,1.39-2.34,2-3.54.67-1.38,1-3,1.58-3.94v-4.06A18.93,18.93,0,0,0,185.63,236.82ZM39.23,55.13c.83-.2,1.88-3.91,2.36-5.63.26-.92.38-2.21.66-2.89a32.91,32.91,0,0,1,2.49-4.07c1.14-1.89,3.5-6.58-.52-6.16-1.16.12-3.54.29-4.07,1.71-.33.88.28,2.26.26,3.14,0,2.39-2.43,6.88-3,9.84C37,53.05,37.38,55.6,39.23,55.13Zm7,56.81a4,4,0,0,0,4.32-.92c.68-.82.56-2,1.05-3,.42-.81,1.5-1.32,2.37-2.1a20.41,20.41,0,0,0,2.1-2.49c1.44-1.84,3.17-3.28,3.4-5.65-3.61-.82-4.73,3.92-7.34,4.21s-5.24.21-6.82,1c-.87.45-2.34,2.82-2,4.06.29,1,2,.82,2.5,2.1C46.13,110.09,45.61,110.78,46.19,111.94ZM16.93,155.62c.46-.77.48-1.67.92-2.36a4.28,4.28,0,0,1,3.68-2.1c2.58.35,1.83,4.28,2.75,6.56.52,1.29,2,2,2.23,3.14.2,1-.15,2.54.13,3.16.44.95,2.81,1.65,4.46,1.57.88,0,1.56-.64,2.5-.52,2.07.23,2.24,2.5,4.45,2.62,3.64.21,3.84-4.63,6.17-5.38.94-.3,2.58.27,3.94,0,2.27-.46,4.62-3.92,5.11-6.56.4-2.12.19-6.12-1.44-7.48-1.13-.93-2.45-.33-3.94-1.7.63-1.67,2.5-1.6,2.76-3.41.3-2.13-1.8-3.61-2.49-5.12a19.66,19.66,0,0,1-1.58-6c-.1-1.42.36-2.93,0-3.94-.42-1.21-1.67-1.51-3.15-2.1a28.39,28.39,0,0,0-3.8-1.57c-2.49-.51-4.56.78-7.08.79-.94,0-1.87-.36-2.63-.27-1.9.23-2.59,2.71-4.33,2.89s-2.43-.8-3.93-.65c-2.54.25-3.59,3.23-4.72,5-.9,1.38-2.23,3.21-3.94,3.81s-4.71.07-5.77.92c-.4,1.17.48,1.88.26,3.28C6,142.44.34,141.09,0,144.47c-.21,2.17,2.17,4.69,2.89,6.3a17.55,17.55,0,0,0,.92,2.37c.45.61,1.45.86,2.36,1.57,1.14.9,1.88,2.27,2.89,2.75C12.41,159.08,15.42,158.19,16.93,155.62Z"/></g></g></svg>