<svg xmlns="http://www.w3.org/2000/svg" viewBox="0 0 1558.98 712.13"><defs><style>.cls-1{fill:#fff;}.cls-1,.cls-2{fill-rule:evenodd;}.cls-2{fill:#5fb0be;}</style></defs><title>Asset 13BottleBanner</title><g id="Layer_2" data-name="Layer 2"><g id="Layer_2-2" data-name="Layer 2"><path class="cls-1" d="M1559,423.4c0,196.53-50.64,231.32-50.64,231.32-16.54,22.35-147.66,57.41-283.17,57.41s-267.94-15.66-414-15.66H747.81c-146.06,0-278.49,15.66-414,15.66S67.18,677.07,50.65,654.72c0,0-50.65-34.79-50.65-231.32C0,241.63,0,105,0,85.43c.51,28.21,20.52,51.63,50.63,70.85,70.58,45.08,196.67,67.15,257.2,74.31,87.09,10.29,239-13.92,440-13.92h63.36c201,0,352.87,24.21,440,13.92,60.54-7.16,186.63-29.23,257.21-74.31,30.11-19.22,50.12-42.64,50.63-70.85C1559,105,1559,241.63,1559,423.4Z"/><path class="cls-2" d="M1559,83v2.41c-.51,28.21-20.52,51.63-50.63,70.85V.68S1556.94-13,1559,83Z"/><path class="cls-2" d="M50.65.68v155.6C20.54,137.06.53,113.64,0,85.43V83C2-13,50.65.68,50.65.68Z"/></g></g></svg>