<svg xmlns="http://www.w3.org/2000/svg" viewBox="0 0 918.65 458.87"><defs><style>.cls-1{fill:#277a73;}.cls-2{fill:#d94728;}.cls-3{fill:#5fb0be;}.cls-4{fill:#ef7b44;}</style></defs><title>Asset 16CreditScoreMeter</title><g id="Layer_2" data-name="Layer 2"><g id="Layer_1-2" data-name="Layer 1"><path class="cls-1" d="M778.66,129.18l-81.52,81.53A343.08,343.08,0,0,1,803.38,458.87H918.65A457.94,457.94,0,0,0,778.66,129.18Z"/><path class="cls-2" d="M221.51,210.71,140,129.18A458,458,0,0,0,0,458.87H115.27A343.08,343.08,0,0,1,221.51,210.71Z"/><path class="cls-3" d="M697.14,210.71l81.52-81.53A457.75,457.75,0,0,0,459.33,0V115.27A342.85,342.85,0,0,1,697.14,210.71Z"/><path class="cls-4" d="M459.33,115.27V0A457.76,457.76,0,0,0,140,129.18l81.52,81.53A342.89,342.89,0,0,1,459.33,115.27Z"/></g></g></svg>