<svg xmlns="http://www.w3.org/2000/svg" viewBox="0 0 112.44 103.99"><defs><style>.cls-1{fill:#042a2b;}</style></defs><title>Asset 29donkey</title><g id="Layer_2" data-name="Layer 2"><g id="Layer_2-2" data-name="Layer 2"><path class="cls-1" d="M88.38,0C92.45-.41,93.31,13.42,94.67,15s5.64,5,6.15,8.54.55,7.1,2,8.73,9.28,5.66,9.56,9.9c.29,4.43-2.13,11.72-9.09,10s-9.68-5.69-11,.3-4.14,13.61-3.91,20.41c.41,12,4.25,23.32,2.26,25.86a7.17,7.17,0,0,1-9.32,1.71C77.47,97.89,76.87,69,71.61,67.94s-11.24,1.18-17,2.2-17.83-.34-18.34,1.7S33.71,86.27,35.4,91s2.75,10.7-.66,12.23-9.35,1.19-10.37-5.94-1-10.7-2.89-16.31S12.65,60.12,11.29,60.12,3.65,71.67.77,70.31,4,63.18,5.35,60.63s1.4-27.76,16.34-27.76,21,5.27,28.16,4.93S68,34.48,69.7,31.25,74,23.78,74,23.78s-8.32-10.87-5.6-13.58,10.86,9.68,13.24,9.68S81.38.73,88.38,0Z"/><path class="cls-1" d="M20.94,79.49A55.2,55.2,0,0,1,19.62,87c-1.2,5.4-2.52,10.62-4.3,12.35-1.94,1.88-6.52,1.7-8.22-1.17C5.21,95,8.07,89,8.47,84s-.73-19.81-.73-19.81l.55-6.46,5.47-1.71,12,14.25Z"/><path class="cls-1" d="M76.68,75.13s-1,6.43-1.09,7.9-2.82,15.23-4.84,16.73-6,1.32-7.2-.86c-1.42-2.57,1.75-14.54,1.81-17s-2.64-13.55-2.64-13.55l1-5.78,11-1.82L78,70.59Z"/></g></g></svg>