<svg xmlns="http://www.w3.org/2000/svg" viewBox="0 0 123.51 86.73"><defs><style>.cls-1{fill:#d94728;}</style></defs><title>Asset 28elephant</title><g id="Layer_2" data-name="Layer 2"><g id="Layer_2-2" data-name="Layer 2"><path class="cls-1" d="M79,0c52.18,0,44,42.27,44,47.52S118.38,84,116.63,84.83s-18.36,1.17-20.4,0,0-24.78-1.46-25.36-7.6,3.25-18.1,3.25S62,58,60.8,59.46s-.58,24.51-1.75,26-20.49,1.84-22.23.36c-1.44-1.22,1.68-33,.23-33s-2.84,16.58-20.14,16C5.54,68.44,0,60.65,0,44.46S.87,27.11,2.62,26s11.52-1,12.54,0,0,14,.29,18.51,6.73,8.3,9.36-5.69S28.75,16.7,36.47,9.32,50.16,0,79,0Z"/></g></g></svg>