<svg xmlns="http://www.w3.org/2000/svg" viewBox="0 0 1953.3 1043.43"><defs><style>.cls-1,.cls-2{fill:none;stroke-linecap:round;stroke-linejoin:round;stroke-width:30px;}.cls-1{stroke:#5fb0bd;}.cls-2{stroke:#042a2b;}.cls-3{isolation:isolate;}.cls-4{fill:#052a2c;}</style></defs><title>Asset 33graph</title><g id="Layer_2" data-name="Layer 2"><g id="Layer_1-2" data-name="Layer 1"><polyline class="cls-1" points="339.86 786.38 460.64 674.06 568.78 706.39 708.14 529.52 957.84 621.34 1170.75 433.9 1403.02 593.4 1747.56 332.88"/><polyline class="cls-2" points="1784.55 870.61 164.43 870.61 164.43 15"/><g id="_2000" data-name="2000"><g id="_2000-2" data-name=" 2000" class="cls-3"><g class="cls-3"><path class="cls-4" d="M68.76,965.2c0,16.65-9,29-40.95,59H71.05L68.61,1041H3.06v-15.74c35-35,43.39-44.47,43.39-58.22,0-8.86-5.65-14.21-14.06-14.21-7.79,0-13.14,3.36-19.4,10.85L0,953.28C8.25,942.43,19.56,936,34.38,936,56.38,936,68.76,949.15,68.76,965.2Z"/><path class="cls-4" d="M158.61,989.64c0,34.38-13,53.79-37.9,53.79C96,1043.43,83,1024,83,989.64S96,936,120.71,936C145.62,936,158.61,955.11,158.61,989.64Zm-53.33,0c0,28,4.74,37.44,15.43,37.44s15.59-9,15.59-37.44-4.89-37.43-15.59-37.43S105.28,961.68,105.28,989.64Z"/><path class="cls-4" d="M247.08,989.64c0,34.38-13,53.79-37.89,53.79-24.76,0-37.74-19.41-37.74-53.79s13-53.63,37.74-53.63C234.1,936,247.08,955.11,247.08,989.64Zm-53.32,0c0,28,4.73,37.44,15.43,37.44s15.58-9,15.58-37.44-4.89-37.43-15.58-37.43S193.76,961.68,193.76,989.64Z"/><path class="cls-4" d="M335.56,989.64c0,34.38-13,53.79-37.9,53.79-24.75,0-37.74-19.41-37.74-53.79s13-53.63,37.74-53.63C322.57,936,335.56,955.11,335.56,989.64Zm-53.33,0c0,28,4.74,37.44,15.43,37.44s15.59-9,15.59-37.44-4.89-37.43-15.59-37.43S282.23,961.68,282.23,989.64Z"/></g></g></g><g id="_2020" data-name="2020"><g id="_2020-2" data-name=" 2020" class="cls-3"><g class="cls-3"><path class="cls-4" d="M1698.42,965.19c0,16.66-9,29-41,59h43.24l-2.45,16.8h-65.55v-15.73c35-35,43.4-44.47,43.4-58.22,0-8.86-5.66-14.21-14.06-14.21-7.79,0-13.14,3.36-19.41,10.85l-13-10.39c8.25-10.85,19.55-17.27,34.38-17.27C1686,936,1698.42,949.15,1698.42,965.19Z"/><path class="cls-4" d="M1788.26,989.64c0,34.38-13,53.79-37.89,53.79-24.75,0-37.74-19.41-37.74-53.79s13-53.63,37.74-53.63C1775.28,936,1788.26,955.11,1788.26,989.64Zm-53.32,0c0,28,4.73,37.44,15.43,37.44s15.59-9,15.59-37.44-4.89-37.43-15.59-37.43S1734.94,961.68,1734.94,989.64Z"/><path class="cls-4" d="M1863.45,965.19c0,16.66-9,29-41,59h43.24l-2.45,16.8h-65.55v-15.73c35-35,43.4-44.47,43.4-58.22,0-8.86-5.66-14.21-14.06-14.21-7.79,0-13.14,3.36-19.41,10.85l-13-10.39c8.25-10.85,19.56-17.27,34.38-17.27C1851.07,936,1863.45,949.15,1863.45,965.19Z"/><path class="cls-4" d="M1953.3,989.64c0,34.38-13,53.79-37.9,53.79-24.75,0-37.74-19.41-37.74-53.79s13-53.63,37.74-53.63C1940.31,936,1953.3,955.11,1953.3,989.64Zm-53.33,0c0,28,4.74,37.44,15.43,37.44s15.59-9,15.59-37.44-4.89-37.43-15.59-37.43S1900,961.68,1900,989.64Z"/></g></g></g></g></g></svg>