<svg xmlns="http://www.w3.org/2000/svg" viewBox="0 0 533.31 80.7"><defs><style>.cls-1{fill:#277a73;}.cls-2{fill:#042a2b;}.cls-3{font-size:66.67px;fill:#cdebf5;font-family:Ubuntu-Light, Ubuntu;font-weight:300;letter-spacing:0.03em;}</style></defs><title>Asset 11Money</title><g id="Layer_2" data-name="Layer 2"><g id="Layer_1-2" data-name="Layer 1"><rect class="cls-1" x="7" y="3.03" width="525.31" height="4.88" rx="2.44" transform="translate(0.02 -0.98) rotate(0.21)"/><rect class="cls-1" x="6" y="8.01" width="525.31" height="4.88" rx="2.44" transform="translate(0.04 -0.98) rotate(0.21)"/><rect class="cls-1" x="8" y="13" width="525.31" height="4.88" rx="2.44" transform="translate(0.06 -0.99) rotate(0.21)"/><rect class="cls-1" x="7" y="17.98" width="525.31" height="4.88" rx="2.44" transform="translate(0.08 -0.98) rotate(0.21)"/><rect class="cls-1" x="5" y="22.96" width="525.31" height="4.88" rx="2.44" transform="translate(0.09 -0.98) rotate(0.21)"/><rect class="cls-1" x="2" y="27.94" width="525.31" height="4.88" rx="2.44" transform="translate(0.11 -0.96) rotate(0.21)"/><rect class="cls-1" x="3" y="32.93" width="525.31" height="4.88" rx="2.44" transform="translate(0.13 -0.97) rotate(0.21)"/><rect class="cls-1" y="37.91" width="525.31" height="4.88" rx="2.44" transform="translate(0.15 -0.96) rotate(0.21)"/><rect class="cls-1" x="2" y="42.89" width="525.31" height="4.88" rx="2.44" transform="translate(0.17 -0.96) rotate(0.21)"/><rect class="cls-1" x="2" y="47.88" width="525.31" height="4.88" rx="2.44" transform="translate(0.19 -0.96) rotate(0.21)"/><rect class="cls-1" x="5" y="52.86" width="525.31" height="4.88" rx="2.44" transform="translate(0.2 -0.98) rotate(0.21)"/><rect class="cls-1" x="6" y="57.84" width="525.31" height="4.88" rx="2.44" transform="translate(0.22 -0.98) rotate(0.21)"/><rect class="cls-1" x="6" y="62.82" width="525.31" height="4.88" rx="2.44" transform="translate(0.24 -0.98) rotate(0.21)"/><rect class="cls-1" x="5" y="67.81" width="525.31" height="4.88" rx="2.44" transform="translate(0.26 -0.98) rotate(0.21)"/><rect class="cls-1" x="7" y="72.79" width="525.31" height="4.88" rx="2.44" transform="translate(0.28 -0.98) rotate(0.21)"/><rect class="cls-2" x="175.82" y="0.31" width="179.46" height="80.07" rx="3.55" transform="translate(0.15 -0.97) rotate(0.21)"/><text class="cls-3" transform="matrix(1, 0, 0, 1, 248.86, 62.39)">$</text></g></g></svg>