<svg xmlns="http://www.w3.org/2000/svg" viewBox="0 0 477.09 340.04"><defs><style>.cls-1{fill:#5fb0be;}</style></defs><title>Asset 10US</title><g id="Layer_2" data-name="Layer 2"><g id="Layer_1-2" data-name="Layer 1"><path class="cls-1" d="M475.42,39.65c-4.32-5.41-7.29-8-9.09-13.46s-6.2-9.45-9.58-7.88-9.57,4.45-9.31,9.48,1.26,16.48-4.94,20.48S416,55.07,411.79,58.93s-3.87,11.86-18.62,18.21c-6.74,2.9-4.5,9.87-8.83,13.63s-15.5,13-21.71,14.85-6.27-3.55-3.38-10.25-.46-14.08-2.66-15.81-4.88,4.42-6.68-1.25-4.1-16-9.88-14.6c-5.07,1.19-1.91,6.59-7.88,8-2.26.53-7.84,2.48-5.95,17.32s.32,21.85-3.06,23-6.57-1.25-7.94-7.79-2.15-20,1.27-27.12-2-7.3-.21-11.14,13.91-7.34,17.19-7.37,4.45-2.66,4.21-5.28-9-1.12-16.62-1.92S309.86,47.66,307.43,45s-8.27,3.47-11.52,6.34-6.06,6.5-9.59,2.93-8.42-.47-4.64-5.09S294.6,40.48,294.79,37s-10.82-.34-15.21-2.7-17.92.5-23.66-6.33-1.41,1.22-29.72-.37-22.08.2-41.1-1.69-71.74-9.72-95.25-15.06C80.19,8.64,57,3.27,51.08,1.36s-6.32-1.74-7.45.07S42.35,5,38.9,4.59,35,1.11,31.09,1.39s-3.39,5.36-2.64,7.4-.07,4.26-.44,6.31.55,4.75-.9,8.28S26.36,30,24.59,34,15.29,56,10.11,62.22,8,67.57,6.52,73.32C5.73,76.41-.24,90.88,0,94.82s2.91,7.83,2.18,11.23-1.12,8.75,1.54,12.66,5.43,19.84,5.92,25.19,7.34,13.58,7.49,18.39S14.47,169,25.8,176.74,40.68,190.14,43,195.15,41.89,203,55.65,202.9s11,.44,12.25,1.3,2.8,6.42,17.93,12.39,12.77,10.7,39.23,13.51l1.06-4.6s13.22.75,14.76.74,8.08,11.06,14.35,15.59,2.64,13.31,13.17,17.58,9.12-5.77,17.64-5.63,8.35,4.51,14.47,16.36,13.08,33.09,28.28,32.95c2.4,0,3.26-1.79,2-10.4s3.46-14.13,10.2-18.23,16.12-16.65,24.86-16.95,8.12,3.31,14.23,3,5.67-1.47,13.57,2.17,17.19,3.45,17.71,1.15-1.17-8.3-2.62-11-.07-7.64,10.11-5.77,13.66.53,17.8-1.37,9.57,7.12,14.82,7.18,5.5-7,11.22-3.82,13.1,10.58,12.5,16.27.44,11.9,4.62,15.14,3.43,5.32,8.51,10.85,5.93,3.22,6,7.92,2.34,4.57,6.36,2.24,6.16-7.28,5.2-16-6.45-12-11.26-24.48-11.06-25.47-8.55-37.62,12.64-15.2,16.74-20.26S415,187.27,419.62,183s14.86-11.83,10.51-21.18,1.21-22,2.26-26.68-.88-12,3.89-16.64-3.53-14.4,3.21-18.61,20.35-8.28,23.17-10.93,1.25-6.78-4-10.89-1.92-5.88-.75-9.5.05-6.55,4.5-9.76,3.75-7.14,8.11-8.82S479.73,45.07,475.42,39.65ZM99.91,275.43a142.36,142.36,0,0,0-7.49-12.55c-3.82-5.53-8.88-8.1-13.29-9.7s-7.4-1.68-8.27.73c-2.63,7.32-7.53,2.25-11,4.41-3.26,2.06,1.64,7.8-2.84,10.14-2.73,1.43-8.39-2.38-12.41,5.2S32.84,289,30.4,290.35s7.59,5.17,8.74,6.14,19.81-2,25.09,1.57,17.23,19.84,17.48,29,3.86,10.29,3.86,10.29,4.1-.2,3.41-3.64-2.32-19.64-2.32-19.64L84,313.6s-.91-2.27-1.8-4.24c-1.38-3.07-2.51-5.38,1-11.15S99.91,275.43,99.91,275.43Zm77.74,52.22c-1.67-2.61-7-4.27-7.91-4.19-1.66.16-.47,1.81-1,3.45s-2.76,2.81-1.59,4.87.53,4.16,1,6.44,2.81,2.27,3.45.79,3.74-3.31,5.54-3.66a8.46,8.46,0,0,0,4.24-2.83C182.11,331.7,179.31,330.26,177.65,327.65ZM124.42,303c0,1.09,2.76,2.7,4,2.36s2.59-3.85,1.27-4.49S124.52,301.06,124.42,303Zm20,4c-2-.86-3.16,1.34-3.16,1.34.68,1.74,2,3.59,3.86,3.45S146.43,307.84,144.46,307Zm17.34,8c-3.62-1.38-8.12-2.76-8.32-1.56-.25,1.41,3,1.39,4.29,3.68s4.41,3.67,6,2.45S165.41,316.41,161.8,315Z"/></g></g></svg>